PathFileType	4	(X/Y/Z)	RBDS024\RBDS024runT35.trc
DataRate	CameraRate	NumFrames	NumMarkers	Units	OrigDataRate	OrigDataStartFrame	OrigNumFrames
150.000000	150.000000	4	33	mm	150.000000	2812	4500
Frame#	Time	L.ASIS			L.Heel.Bottom			L.Heel.Lateral			L.Heel.Top			L.Iliac.Crest			L.MT1			L.MT5			L.PSIS			L.Shank.Bottom.Lateral			L.Shank.Bottom.Medial			L.Shank.Top.Lateral			L.Shank.Top.Medial			L.Thigh.Bottom.Lateral			L.Thigh.Bottom.Medial			L.Thigh.Top.Lateral			L.Thigh.Top.Medial			R.ASIS			R.ASY			R.Heel.Bottom			R.Heel.Lateral			R.Heel.Top			R.Iliac.Crest			R.MT1			R.MT5			R.PSIS			R.Shank.Bottom.Lateral			R.Shank.Bottom.Medial			R.Shank.Top.Lateral			R.Shank.Top.Medial			R.Thigh.Bottom.Lateral			R.Thigh.Bottom.Medial			R.Thigh.Top.Lateral			R.Thigh.Top.Medial			
		X1	Y1	Z1	X2	Y2	Z2	X3	Y3	Z3	X4	Y4	Z4	X5	Y5	Z5	X6	Y6	Z6	X7	Y7	Z7	X8	Y8	Z8	X9	Y9	Z9	X10	Y10	Z10	X11	Y11	Z11	X12	Y12	Z12	X13	Y13	Z13	X14	Y14	Z14	X15	Y15	Z15	X16	Y16	Z16	X17	Y17	Z17	X18	Y18	Z18	X19	Y19	Z19	X20	Y20	Z20	X21	Y21	Z21	X22	Y22	Z22	X23	Y23	Z23	X24	Y24	Z24	X25	Y25	Z25	X26	Y26	Z26	X27	Y27	Z27	X28	Y28	Z28	X29	Y29	Z29	X30	Y30	Z30	X31	Y31	Z31	X32	Y32	Z32	X33	Y33	Z33	

2813	18.74666666666667	2152.921507508608	928.5305062643384	944.9313325521063	1924.675873284015	32.90287956819015	1059.483802766698	1949.581750102845	49.70192591900244	1016.484749081038	1936.918423870488	76.71043301252665	1059.545912758868	2047.608899928943	994.5944642695831	897.1950759013192	2150.499480940997	43.72838703605465	1103.545143664484	2113.652620133226	35.29826687180873	985.2647940305756	1970.513598428035	965.7054117035892	1020.032651989538	2048.42563252229	147.3520706496645	991.9876408515191	2005.43473573497	171.5449906326705	1006.12308334512	2079.647646325063	215.0981973200688	960.349304298939	2037.246485595574	243.8774255790945	975.6421153385207	2145.55138210132	565.4544622559965	898.3726429434081	2089.495448297925	546.4369665876878	937.8793567123056	2095.754757954292	662.4295151285438	879.7272433733278	2044.542306398014	646.3297901648566	921.5907235605742	2149.511093394645	894.8106416599285	1181.655386404527	1745.529392222066	413.7036387639079	1139.053040255437	1743.357169390099	606.175956607642	1116.854899604731	1750.75938880823	573.3451490884413	1164.731696857011	1782.409082832643	586.2232019049571	1120.605679994125	2084.785814001128	968.5428642874854	1234.507361337139	1695.873505119697	392.5388857782056	1084.648231891803	1693.325616227356	424.9225073482274	1197.887089757886	1976.932336501456	952.4419378606719	1120.988848193583	1865.593549360702	516.8064233608712	1182.976239671862	1877.614890327819	554.0357984715478	1142.998418839748	1945.346792781393	510.431042636282	1198.768880397937	1955.623822325457	546.396820603993	1159.550538410257	2138.477724895906	532.8727157137866	1224.826253816988	2087.56362073733	521.2317179058946	1175.727619519461	2097.226434513086	633.5634641169264	1237.11897999697	2044.102546216499	617.2146069653744	1196.337794038142	
2814	18.75333333333333	2150.821882530406	927.8916213030616	943.8965929571665	1901.154155106805	33.7801576652712	1059.19033409566	1926.088695071801	50.21963079522097	1016.093514462032	1913.538776175717	77.53584637051573	1058.916502122948	2045.106888989102	994.3924015281392	896.7325276737795	2126.798451314753	43.61848676250393	1103.112147393756	2089.887866827381	34.67748621708621	984.9234674556177	1968.849200961148	966.2147452530877	1019.630411641006	2026.77896787244	146.9869130238176	991.2193797134876	1984.402368707538	172.287847786078	1005.161784421382	2059.771878023817	213.8710965799762	959.5468823945704	2018.102050968687	243.737099644004	974.7020782211919	2133.864634471662	562.8191944751977	897.7634969582732	2077.227230764953	545.5501379526888	937.3688411936439	2087.16692028139	661.3875870136759	879.4948355198903	2035.546760939128	646.9262147229479	921.6536597222849	2147.351801405769	895.0555464216011	1181.758757552637	1763.31091025357	403.9414132427857	1140.667391984487	1751.078951476856	596.0742799073389	1119.370010740452	1760.792754412931	563.5629758732005	1167.08287708052	1791.074563512423	578.0800142530632	1122.529726188394	2080.294955692952	969.2058721596037	1234.355693009008	1714.089245129308	380.4784254280846	1087.00467225426	1711.380439715654	412.4648673740899	1200.416202894766	1975.156287330532	953.1706662913571	1120.432563991817	1878.530089537472	511.4054024837097	1183.909129321825	1888.955011216339	549.3009455547739	1144.185669684965	1958.547524749242	507.7905053261113	1199.150563793097	1967.261074818489	544.4392683644833	1160.323961617017	2150.550037835383	537.1589092737945	1224.312405720925	2099.898818691589	522.7939926450468	1175.692397241339	2104.631306842144	635.798888453964	1236.677927447928	2051.62406925082	616.4093129873719	1196.872834327631	
2815	18.76	2148.851207120487	927.8094932467923	942.861628817821	1877.543721813473	34.93817344231297	1058.885044351877	1902.536527770458	50.96051881577449	1015.686064369962	1890.129936363829	78.61608346354025	1058.249173300573	2042.894862867221	994.8171095920734	896.2244682230524	2102.981968328495	43.38723189151953	1102.775201854473	2066.04378176238	34.07363730977888	984.6544664702413	1967.386391014345	967.2865008613429	1019.150688872479	2004.814480562477	146.9269347040515	990.4431246968666	1963.019786318184	173.198968535636	1004.272095779775	2039.341556138435	213.0167399894672	958.7204270710497	1998.372773044499	243.8258021933205	973.8126032899244	2121.449614930035	560.7512295524558	897.1141894517714	2064.213650688678	545.3347762030251	936.7669867168443	2078.086294103915	660.9261731302021	879.2151233627972	2026.083440016891	648.1948600180665	921.6432652695225	2145.516726925328	896.2937409322631	1181.691506623348	1781.328617377941	393.3762158863198	1142.144876188659	1758.077639253532	584.3986233110107	1121.203129018994	1770.197089113112	552.6085812455741	1168.859608003322	1798.992375022287	568.6484883450325	1123.810130710295	2076.390612371331	970.7541973149781	1234.111524057888	1732.819394832859	367.1785287111828	1089.313269978537	1729.80540838348	399.1472460090015	1202.732252232301	1973.615954177536	954.6132779516133	1119.847884455675	1890.874212428145	505.53410104302	1184.425552417654	1899.505094586954	544.0226169353738	1144.939551881319	1971.049558294605	505.1185859292736	1199.172189276228	1978.014425157403	542.3561623049957	1160.69739804952	2162.254823590842	542.6364094610783	1223.683184504887	2111.782668370583	525.4976356852435	1175.703820455151	2111.907193353662	639.069417705992	1236.299051504624	2059.072067455065	616.7697017001931	1197.5083208557	
2816	18.76666666666667	2147.032153829151	928.2637895680427	941.8122367080522	1853.875918688083	36.4961917101172	1058.599034253298	1878.958269954882	52.05668155463686	1015.297492409096	1866.729007850414	80.06981807084874	1057.595348225225	2041.05065406025	995.8456130056759	895.6461074606431	2079.072863801978	43.09712760637005	1102.539510454533	2042.13190722958	33.57459639204375	984.4779344131314	1966.142560942503	968.9048524129081	1018.602032442947	1982.586763121831	147.3080324241718	989.7241786629263	1941.338753528364	174.4211707999269	1003.531445731142	2018.42568369303	212.6866798525963	957.9465063715968	1978.124935951244	244.3033296905831	973.0582387241707	2108.463555468124	559.3599873933031	896.4983206729332	2050.642872820655	545.8907754085845	936.1587991433987	2068.633288014829	661.0973921524555	878.9248669582064	2016.285101844596	650.1795450661429	921.5823739451015	2144.083640261566	898.4585563861752	1181.369917224248	1799.614124334783	382.1146557074912	1143.459166996566	1764.551371317113	571.1332782912514	1122.380397324951	1779.121004832335	540.4610913021774	1170.060754862642	1806.320213381981	557.8969776626371	1124.4740752089	2073.240846869232	973.0843378304639	1233.751269647057	1752.145161594863	352.8253329283167	1091.516986909582	1748.636905811957	385.0924944050497	1204.785529236879	1972.332039047217	956.7299544830518	1119.243516550418	1902.652410712539	499.1536914744239	1184.538795450252	1909.309829266228	538.1344802620904	1145.266689441363	1982.830718147454	502.339395693836	1198.849396687684	1987.880391100442	540.0369035371189	1160.6621137992	2173.470393788516	549.16674187032	1222.924502970788	2123.086931269902	529.2646447699616	1175.747698682274	2119.015521368166	643.294914638094	1235.974366496288	2066.404806591663	618.2886660703851	1198.203147728781	
